<svg width="76" height="20" viewBox="0 0 76 20" fill="none" xmlns="http://www.w3.org/2000/svg">
<path d="M40.0959 0.633235C40.1076 0.61314 40.1211 0.61314 40.1373 0.633235L40.113 0.65333L40.0959 0.633235Z" fill="#0124DD"/>
<path d="M21.9908 6.90127C22.2186 6.18845 22.4345 5.51477 22.6457 4.84681C22.6718 4.76525 22.7246 4.74649 22.7931 4.73345C23.9335 4.51324 25.0785 4.32565 26.2433 4.38519C27.0653 4.42515 27.8557 4.59887 28.5634 5.0556C29.5233 5.67381 29.9623 6.60521 30.0245 7.74703C30.0608 8.40357 29.9575 9.05196 29.8669 9.69464C29.6786 11.0045 29.4847 12.3127 29.3027 13.6225C29.2977 13.6774 29.2785 13.7299 29.2472 13.7746C29.2159 13.8192 29.1735 13.8543 29.1245 13.8761C28.3822 14.2978 27.5768 14.5286 26.7493 14.6689C25.7252 14.8525 24.6807 14.88 23.649 14.7504C22.7892 14.6387 21.9877 14.3622 21.3635 13.7081C21.0927 13.4211 20.8824 13.0789 20.7461 12.7034C20.6097 12.3278 20.5503 11.927 20.5716 11.5264C20.5929 11.1258 20.6943 10.7341 20.8696 10.3762C21.0449 10.0184 21.2901 9.70211 21.5897 9.44752C22.2296 8.90271 22.9862 8.63193 23.7829 8.45658C24.9895 8.19233 26.2071 8.22822 27.4254 8.32446C27.5775 8.33588 27.6106 8.28776 27.6177 8.14748C27.6721 7.16388 27.1015 6.45759 26.0999 6.26756C25.4048 6.13543 24.7223 6.24961 24.0399 6.36543C23.3435 6.48401 22.6581 6.66326 21.9908 6.90127ZM26.2528 9.86836C25.8191 9.86544 25.3858 9.89844 24.9572 9.96704C24.4938 10.0486 24.0438 10.175 23.6702 10.4931C23.2478 10.8528 23.1351 11.3356 23.2187 11.8674C23.2975 12.3526 23.6253 12.6185 24.0501 12.7751C24.2448 12.846 24.4474 12.8912 24.653 12.9097C25.4127 12.9855 26.1503 12.8485 26.8832 12.6609C26.933 12.6541 26.9785 12.6287 27.0114 12.5895C27.0442 12.5503 27.062 12.4999 27.0614 12.4481C27.1614 11.6773 27.2607 10.9058 27.3711 10.1367C27.39 10.0037 27.3474 9.97846 27.2402 9.95726C26.9138 9.90147 26.5837 9.87175 26.2528 9.86836Z" fill="#114185"/>
<path d="M57.1742 12.2705C57.0481 12.6669 56.9378 13.0217 56.8212 13.3765C56.7282 13.6676 56.6289 13.9564 56.5406 14.25C56.5322 14.2949 56.511 14.3362 56.4799 14.3688C56.4488 14.4013 56.409 14.4235 56.3657 14.4327C55.1599 14.7654 53.9384 14.9457 52.6932 14.7834C51.2747 14.5982 50.102 13.9678 49.3833 12.6212C48.9412 11.7877 48.8009 10.88 48.8608 9.9445C48.975 8.16489 49.6914 6.6895 51.0233 5.54687C51.8326 4.852 52.7767 4.49477 53.8154 4.38874C54.5318 4.31616 55.2442 4.33002 55.9432 4.53147C57.3665 4.93926 58.3154 6.08516 58.4974 7.60214C58.6022 8.474 58.4974 9.33036 58.3611 10.1875C58.3445 10.2944 58.2925 10.2976 58.2137 10.2976C57.8315 10.2976 57.4485 10.2976 57.0663 10.2976C55.2274 10.2976 53.3886 10.2976 51.5497 10.2976C51.4015 10.2976 51.3582 10.3352 51.3558 10.4926C51.3353 11.7747 52.0194 12.6212 53.237 12.8374C54.137 13.0005 55.0125 12.8594 55.8865 12.662C56.3236 12.5609 56.7537 12.4301 57.1742 12.2705ZM53.9589 8.63304H55.7242C56.2632 8.63304 56.2632 8.63304 56.2813 8.07518C56.3184 6.9456 55.6509 6.20913 54.5657 6.14633C53.2677 6.07048 52.0438 7.04347 51.7286 8.48705C51.7026 8.60694 51.7286 8.6363 51.8468 8.63549C52.549 8.62978 53.2496 8.63304 53.9589 8.63304Z" fill="#114185"/>
<path d="M61.7055 14.8168C60.5483 14.8088 59.3996 14.6106 58.3025 14.2295C58.193 14.1904 58.1638 14.1578 58.2032 14.0346C58.3834 13.4697 58.556 12.902 58.721 12.3317C58.762 12.1914 58.8101 12.2028 58.9188 12.2566C59.9725 12.7901 61.1627 12.9637 62.3178 12.7525C62.5888 12.7098 62.846 12.6007 63.0681 12.4344C63.1708 12.3607 63.2562 12.2641 63.3181 12.1518C63.38 12.0394 63.4168 11.9141 63.4257 11.785C63.4346 11.656 63.4155 11.5265 63.3697 11.4062C63.3239 11.2858 63.2526 11.1776 63.161 11.0895C62.9607 10.8976 62.7359 10.7352 62.4928 10.6067C61.8899 10.2576 61.2768 9.9306 60.7038 9.52607C59.1647 8.43563 59.3523 6.16586 60.8677 5.17003C61.5392 4.7288 62.2745 4.50778 63.0554 4.42377C64.3574 4.28431 65.6159 4.51512 66.8564 4.90171C66.9698 4.93678 66.999 4.96858 66.9556 5.09337C66.7689 5.62921 66.5884 6.16831 66.419 6.71067C66.374 6.8534 66.3205 6.84279 66.2141 6.79223C65.4382 6.41335 64.5887 6.22363 63.7308 6.23763C63.3147 6.24823 62.9089 6.31919 62.5566 6.57365C62.4068 6.67247 62.2926 6.81944 62.2314 6.99197C62.1701 7.16451 62.1654 7.35307 62.2177 7.5287C62.2856 7.72566 62.4137 7.89431 62.5826 8.00908C62.9475 8.2929 63.3652 8.48457 63.7647 8.7113C64.2536 8.97545 64.7202 9.28155 65.1596 9.62638C66.4584 10.6932 66.3268 12.7256 65.0808 13.7581C64.277 14.4228 63.336 14.6887 62.3351 14.7833C62.0837 14.8062 61.8339 14.8102 61.7055 14.8168Z" fill="#114185"/>
<path d="M70.2066 14.816C69.0648 14.8046 67.9318 14.6084 66.8486 14.2345C66.7233 14.1913 66.691 14.153 66.7375 14.0159C66.9156 13.463 67.0843 12.9068 67.2482 12.3489C67.2876 12.2135 67.327 12.1939 67.4547 12.2576C68.5039 12.786 69.6871 12.96 70.8371 12.7551C71.0835 12.715 71.3197 12.624 71.5314 12.4875C72.0539 12.1426 72.1177 11.5088 71.6764 11.0652C71.4913 10.893 71.2855 10.7464 71.0641 10.6288C70.4336 10.2586 69.7787 9.92743 69.1853 9.48701C67.8164 8.46345 67.9866 6.61126 68.8236 5.6815C69.3878 5.05594 70.1002 4.71992 70.8907 4.53968C71.9396 4.29501 72.9878 4.35373 74.0351 4.55436C74.4765 4.63592 74.9083 4.75989 75.3402 4.88059C75.4836 4.92219 75.5356 4.96623 75.475 5.13587C75.2929 5.64724 75.1274 6.16432 74.9666 6.68548C74.9217 6.82821 74.8768 6.8486 74.7412 6.78743C73.9757 6.41543 73.1392 6.22617 72.2935 6.23365C71.8994 6.24099 71.5188 6.30134 71.1752 6.51502C70.8497 6.71647 70.685 7.00927 70.7339 7.41217C70.7646 7.66826 70.9135 7.84687 71.1011 7.99368C71.4951 8.30278 71.9483 8.50668 72.377 8.75136C72.8656 9.0311 73.3479 9.32226 73.7743 9.69825C74.969 10.7585 74.8342 12.7241 73.6356 13.7354C72.9917 14.2794 72.2446 14.5616 71.4384 14.7076C71.0311 14.776 70.6193 14.8123 70.2066 14.816Z" fill="#114185"/>
<path d="M38.9849 12.4167C38.9447 12.6613 38.8431 12.8807 38.7682 13.1115C38.6256 13.5511 38.4735 13.9867 38.3324 14.4271C38.322 14.4711 38.2984 14.5106 38.265 14.5399C38.2316 14.5692 38.1901 14.5868 38.1464 14.5902C37.2007 14.7533 36.2448 14.8569 35.2841 14.7819C33.8506 14.6701 32.6212 14.1294 31.7764 12.8652C31.1806 11.9746 30.9702 10.9625 31.023 9.89651C31.1112 8.11854 31.8394 6.66353 33.1815 5.54945C33.9507 4.91166 34.8554 4.59848 35.8192 4.46798C37.0123 4.29298 38.2272 4.36815 39.3916 4.68901C39.6138 4.75181 39.8282 4.83989 40.0465 4.91329C40.1253 4.93939 40.1458 4.97446 40.1166 5.06336C39.9306 5.62611 39.7462 6.1905 39.572 6.75733C39.5334 6.88211 39.4791 6.85683 39.401 6.82502C38.8446 6.58888 38.2553 6.446 37.6554 6.40173C36.3575 6.32588 35.2289 6.69534 34.4188 7.81351C33.6599 8.86153 33.5425 10.602 34.355 11.6541C34.8601 12.3066 35.5268 12.6524 36.3181 12.7478C37.1716 12.8506 37.9967 12.6801 38.8116 12.4379C38.8636 12.4224 38.9164 12.4118 38.9692 12.3987L38.9849 12.4167Z" fill="#114185"/>
<path d="M47.9691 12.4038C47.7878 12.9437 47.5798 13.4779 47.4308 14.0293C47.3229 14.4313 47.1408 14.6222 46.7168 14.6662C45.5347 14.7886 44.3526 14.9256 43.1705 14.6018C41.3114 14.0904 40.097 12.5555 39.9961 10.5606C39.8858 8.39277 40.688 6.66047 42.3753 5.37918C43.0846 4.84171 43.9121 4.58725 44.7758 4.47062C45.9686 4.2962 47.183 4.37108 48.3474 4.69083C48.5633 4.752 48.7706 4.84335 48.9857 4.90778C49.0984 4.94203 49.1016 4.99504 49.0645 5.09699C48.8841 5.64262 48.7052 6.18824 48.5373 6.73795C48.4971 6.86926 48.449 6.86436 48.3458 6.82358C47.5199 6.49735 46.6751 6.32037 45.7838 6.41579C44.2699 6.5838 43.1177 7.61959 42.8269 9.14392C42.6172 10.2441 42.8095 11.2506 43.6567 12.0295C44.3321 12.6493 45.1541 12.8222 46.0296 12.7692C46.6473 12.7271 47.2577 12.6066 47.8469 12.4103C47.8824 12.4038 47.9139 12.3736 47.9691 12.4038Z" fill="#114185"/>
<path d="M17.9465 10.1597L8.1294 0V1.5594L16.4397 10.1597L16.4429 10.163L9.24453 17.6125L9.23586 17.6036L2.04227 10.1597L2.03597 10.1532L5.56735 6.49857H4.03454L0.5 10.1565L0.503152 10.1597L9.23271 19.1939L9.23586 19.1907L17.9544 10.1679L17.9465 10.1597Z" fill="#FE6309"/>
<path d="M8.12707 2.63086V4.19026L13.8966 10.1611L9.24851 14.9715L4.59647 10.1579L4.59017 10.1514L8.12155 6.49673H6.58874L3.0542 10.1546L3.05735 10.1579L8.47855 15.7683L9.23668 16.5529L10.0074 15.756L15.4081 10.166L8.12707 2.63086Z" fill="#FE6309"/>
<path d="M12.8619 10.1601L9.98307 7.17751L9.21706 6.38477L8.46365 7.16447L5.56982 10.1568L8.46523 13.1533L9.22336 13.9379L9.99253 13.1411L12.8698 10.1683L12.8619 10.1601ZM9.23676 12.3622L7.10894 10.1601L7.10264 10.1536L9.22494 7.95721L11.3528 10.1593L9.23676 12.3622Z" fill="#FE6309"/>
</svg>
