<svg width="16" height="16" viewBox="0 0 16 16" fill="none" xmlns="http://www.w3.org/2000/svg">
<path d="M14.9414 8.91172C14.7762 10.1718 14.2711 11.363 13.4802 12.3578C12.6894 13.3526 11.6427 14.1133 10.4524 14.5585C9.26204 15.0036 7.973 15.1163 6.7235 14.8845C5.47399 14.6527 4.31116 14.0851 3.3597 13.2426C2.40825 12.4002 1.70407 11.3146 1.32268 10.1024C0.941298 8.89011 0.897097 7.59691 1.19482 6.36145C1.49254 5.12599 2.12096 3.99488 3.01267 3.08942C3.90439 2.18397 5.02576 1.53833 6.25652 1.22175C9.66835 0.346695 13.2001 2.10293 14.5039 5.37563" stroke="#2D6157" stroke-width="2" stroke-linecap="round" stroke-linejoin="round"/>
<path d="M14.9998 1.00043V5.37569H10.6245" stroke="#2D6157" stroke-width="2" stroke-linecap="round" stroke-linejoin="round"/>
</svg>
