<svg width="20" height="21" viewBox="0 0 20 21" fill="none" xmlns="http://www.w3.org/2000/svg">
<path d="M18.7165 9.26504H4.37986L10.6433 2.83318C11.1439 2.31916 11.1439 1.47564 10.6433 0.961614C10.5246 0.83943 10.3835 0.742494 10.2283 0.676355C10.073 0.610216 9.90655 0.576172 9.73845 0.576172C9.57035 0.576172 9.40391 0.610216 9.24864 0.676355C9.09337 0.742494 8.95233 0.83943 8.83359 0.961614L0.375351 9.64726C0.256366 9.76919 0.161968 9.91403 0.0975606 10.0735C0.033153 10.2329 0 10.4038 0 10.5765C0 10.7491 0.033153 10.92 0.0975606 11.0794C0.161968 11.2389 0.256366 11.3837 0.375351 11.5056L8.83359 20.1913C8.95242 20.3133 9.09349 20.4101 9.24874 20.4761C9.404 20.5422 9.5704 20.5762 9.73845 20.5762C9.9065 20.5762 10.0729 20.5422 10.2282 20.4761C10.3834 20.4101 10.5245 20.3133 10.6433 20.1913C10.7621 20.0693 10.8564 19.9244 10.9207 19.765C10.985 19.6055 11.0181 19.4347 11.0181 19.2621C11.0181 19.0895 10.985 18.9187 10.9207 18.7592C10.8564 18.5998 10.7621 18.4549 10.6433 18.3329L4.37986 11.901H18.7165C19.4224 11.901 20 11.3079 20 10.583C20 9.85814 19.4224 9.26504 18.7165 9.26504Z" fill="#444444"/>
</svg>
