<svg width="18" height="18" viewBox="0 0 18 18" fill="none" xmlns="http://www.w3.org/2000/svg">
<path d="M13.186 10.4655C13.408 10.4655 13.621 10.3773 13.778 10.2203C13.935 10.0633 14.0232 9.85032 14.0232 9.62826C14.0232 9.40621 13.935 9.19325 13.778 9.03624C13.621 8.87923 13.408 8.79102 13.186 8.79102C12.9639 8.79102 12.7509 8.87923 12.5939 9.03624C12.4369 9.19325 12.3487 9.40621 12.3487 9.62826C12.3487 9.85032 12.4369 10.0633 12.5939 10.2203C12.7509 10.3773 12.9639 10.4655 13.186 10.4655ZM13.186 13.8145C13.408 13.8145 13.621 13.7263 13.778 13.5693C13.935 13.4123 14.0232 13.1993 14.0232 12.9773C14.0232 12.7552 13.935 12.5422 13.778 12.3852C13.621 12.2282 13.408 12.14 13.186 12.14C12.9639 12.14 12.7509 12.2282 12.5939 12.3852C12.4369 12.5422 12.3487 12.7552 12.3487 12.9773C12.3487 13.1993 12.4369 13.4123 12.5939 13.5693C12.7509 13.7263 12.9639 13.8145 13.186 13.8145ZM9.83696 9.62826C9.83696 9.85032 9.74875 10.0633 9.59174 10.2203C9.43472 10.3773 9.22177 10.4655 8.99972 10.4655C8.77766 10.4655 8.56471 10.3773 8.40769 10.2203C8.25068 10.0633 8.16247 9.85032 8.16247 9.62826C8.16247 9.40621 8.25068 9.19325 8.40769 9.03624C8.56471 8.87923 8.77766 8.79102 8.99972 8.79102C9.22177 8.79102 9.43472 8.87923 9.59174 9.03624C9.74875 9.19325 9.83696 9.40621 9.83696 9.62826ZM9.83696 12.9773C9.83696 13.1993 9.74875 13.4123 9.59174 13.5693C9.43472 13.7263 9.22177 13.8145 8.99972 13.8145C8.77766 13.8145 8.56471 13.7263 8.40769 13.5693C8.25068 13.4123 8.16247 13.1993 8.16247 12.9773C8.16247 12.7552 8.25068 12.5422 8.40769 12.3852C8.56471 12.2282 8.77766 12.14 8.99972 12.14C9.22177 12.14 9.43472 12.2282 9.59174 12.3852C9.74875 12.5422 9.83696 12.7552 9.83696 12.9773ZM4.81347 10.4655C5.03553 10.4655 5.24848 10.3773 5.4055 10.2203C5.56251 10.0633 5.65072 9.85032 5.65072 9.62826C5.65072 9.40621 5.56251 9.19325 5.4055 9.03624C5.24848 8.87923 5.03553 8.79102 4.81347 8.79102C4.59142 8.79102 4.37847 8.87923 4.22145 9.03624C4.06444 9.19325 3.97623 9.40621 3.97623 9.62826C3.97623 9.85032 4.06444 10.0633 4.22145 10.2203C4.37847 10.3773 4.59142 10.4655 4.81347 10.4655ZM4.81347 13.8145C5.03553 13.8145 5.24848 13.7263 5.4055 13.5693C5.56251 13.4123 5.65072 13.1993 5.65072 12.9773C5.65072 12.7552 5.56251 12.5422 5.4055 12.3852C5.24848 12.2282 5.03553 12.14 4.81347 12.14C4.59142 12.14 4.37847 12.2282 4.22145 12.3852C4.06444 12.5422 3.97623 12.7552 3.97623 12.9773C3.97623 13.1993 4.06444 13.4123 4.22145 13.5693C4.37847 13.7263 4.59142 13.8145 4.81347 13.8145Z" fill="#444444"/>
<path fill-rule="evenodd" clip-rule="evenodd" d="M4.81334 0.208984C4.97988 0.208984 5.1396 0.275142 5.25736 0.392903C5.37512 0.510664 5.44128 0.670382 5.44128 0.83692V1.47574C5.99553 1.46486 6.60589 1.46486 7.27736 1.46486H10.721C11.3933 1.46486 12.0036 1.46486 12.5579 1.47574V0.83692C12.5579 0.670382 12.624 0.510664 12.7418 0.392903C12.8596 0.275142 13.0193 0.208984 13.1858 0.208984C13.3524 0.208984 13.5121 0.275142 13.6298 0.392903C13.7476 0.510664 13.8138 0.670382 13.8138 0.83692V1.52932C14.0314 1.54607 14.2377 1.56728 14.4325 1.59296C15.4137 1.72524 16.2083 2.00321 16.8354 2.62947C17.4616 3.25657 17.7396 4.05112 17.8719 5.03237C18 5.98683 18 7.20503 18 8.74389V10.5122C18 12.051 18 13.2701 17.8719 14.2237C17.7396 15.2049 17.4616 15.9995 16.8354 16.6266C16.2083 17.2528 15.4137 17.5308 14.4325 17.6631C13.478 17.7912 12.2598 17.7912 10.721 17.7912H7.27903C5.74017 17.7912 4.52114 17.7912 3.56751 17.6631C2.58626 17.5308 1.79171 17.2528 1.16461 16.6266C0.53835 15.9995 0.260384 15.2049 0.128099 14.2237C0 13.2692 0 12.051 0 10.5122V8.74389C0 7.20503 0 5.986 0.128099 5.03237C0.260384 4.05112 0.53835 3.25657 1.16461 2.62947C1.79171 2.00321 2.58626 1.72524 3.56751 1.59296C3.76287 1.56728 3.96911 1.54607 4.18624 1.52932V0.83692C4.18624 0.670526 4.25228 0.510935 4.36986 0.393198C4.48744 0.275462 4.64695 0.209206 4.81334 0.208984ZM3.73329 2.83794C2.89186 2.95097 2.40625 3.16363 2.05209 3.51779C1.69794 3.87195 1.48528 4.35755 1.37225 5.19898C1.35327 5.34132 1.33709 5.49174 1.32369 5.65026H16.6755C16.6621 5.49174 16.6459 5.34104 16.6269 5.19815C16.5139 4.35671 16.3012 3.87111 15.9471 3.51695C15.5929 3.1628 15.1073 2.95013 14.265 2.83711C13.4052 2.72157 12.2707 2.71989 10.6741 2.71989H7.32508C5.72845 2.71989 4.59482 2.7224 3.73329 2.83794ZM1.25503 8.79078C1.25503 8.07577 1.25503 7.45369 1.26592 6.90697H16.7332C16.7441 7.45369 16.7441 8.07577 16.7441 8.79078V10.4653C16.7441 12.0619 16.7425 13.1964 16.6269 14.0571C16.5139 14.8985 16.3012 15.3841 15.9471 15.7383C15.5929 16.0924 15.1073 16.3051 14.265 16.4181C13.4052 16.5337 12.2707 16.5353 10.6741 16.5353H7.32508C5.72845 16.5353 4.59482 16.5337 3.73329 16.4181C2.89186 16.3051 2.40625 16.0924 2.05209 15.7383C1.69794 15.3841 1.48528 14.8985 1.37225 14.0562C1.25671 13.1964 1.25503 12.0619 1.25503 10.4653V8.79078Z" fill="#444444"/>
</svg>
