<svg width="20" height="21" viewBox="0 0 20 21" fill="none" xmlns="http://www.w3.org/2000/svg">
<path fill-rule="evenodd" clip-rule="evenodd" d="M5.22032 11.9527C5.36094 12.0931 5.55157 12.172 5.75032 12.172C5.94907 12.172 6.13969 12.0931 6.28032 11.9527L10.0003 8.2327L13.7203 11.9527C13.789 12.0264 13.8718 12.0855 13.9638 12.1265C14.0558 12.1675 14.1551 12.1895 14.2558 12.1913C14.3565 12.1931 14.4565 12.1745 14.5499 12.1368C14.6433 12.0991 14.7281 12.043 14.7994 11.9717C14.8706 11.9005 14.9267 11.8157 14.9644 11.7223C15.0022 11.6289 15.0207 11.5289 15.0189 11.4282C15.0171 11.3275 14.9951 11.2282 14.9541 11.1362C14.9131 11.0442 14.854 10.9614 14.7803 10.8927L10.5303 6.6427C10.3897 6.50225 10.1991 6.42336 10.0003 6.42336C9.80157 6.42336 9.61094 6.50225 9.47032 6.6427L5.22032 10.8927C5.07987 11.0333 5.00098 11.2239 5.00098 11.4227C5.00098 11.6214 5.07987 11.8121 5.22032 11.9527Z" fill="#737373"/>
</svg>
