<svg width="20" height="21" viewBox="0 0 20 21" fill="none" xmlns="http://www.w3.org/2000/svg">
<path fill-rule="evenodd" clip-rule="evenodd" d="M5.21995 8.89301C5.36058 8.75255 5.5512 8.67366 5.74995 8.67366C5.9487 8.67366 6.13933 8.75255 6.27995 8.89301L9.99995 12.613L13.72 8.89301C13.7886 8.81932 13.8714 8.76022 13.9634 8.71922C14.0554 8.67823 14.1547 8.65619 14.2554 8.65441C14.3561 8.65264 14.4562 8.67116 14.5495 8.70888C14.6429 8.7466 14.7278 8.80275 14.799 8.87397C14.8702 8.94519 14.9264 9.03002 14.9641 9.12341C15.0018 9.2168 15.0203 9.31682 15.0185 9.41753C15.0168 9.51823 14.9947 9.61754 14.9537 9.70954C14.9127 9.80154 14.8536 9.88434 14.78 9.953L10.53 14.203C10.3893 14.3435 10.1987 14.4223 9.99995 14.4223C9.8012 14.4223 9.61058 14.3435 9.46995 14.203L5.21995 9.953C5.0795 9.81238 5.00061 9.62176 5.00061 9.423C5.00061 9.22425 5.0795 9.03363 5.21995 8.89301Z" fill="#737373"/>
</svg>
