<svg width="20" height="21" viewBox="0 0 20 21" fill="none" xmlns="http://www.w3.org/2000/svg">
<path d="M10 12.6088L2.54753 20.0612C2.26869 20.3401 1.91381 20.4795 1.48289 20.4795C1.05196 20.4795 0.697084 20.3401 0.41825 20.0612C0.139416 19.7824 0 19.4275 0 18.9966C0 18.5657 0.139416 18.2108 0.41825 17.932L7.87072 10.4795L0.41825 3.02702C0.139416 2.74819 0 2.39331 0 1.96238C0 1.53146 0.139416 1.17658 0.41825 0.897743C0.697084 0.618909 1.05196 0.479492 1.48289 0.479492C1.91381 0.479492 2.26869 0.618909 2.54753 0.897743L10 8.35021L17.4525 0.897743C17.7313 0.618909 18.0862 0.479492 18.5171 0.479492C18.948 0.479492 19.3029 0.618909 19.5817 0.897743C19.8606 1.17658 20 1.53146 20 1.96238C20 2.39331 19.8606 2.74819 19.5817 3.02702L12.1293 10.4795L19.5817 17.932C19.8606 18.2108 20 18.5657 20 18.9966C20 19.4275 19.8606 19.7824 19.5817 20.0612C19.3029 20.3401 18.948 20.4795 18.5171 20.4795C18.0862 20.4795 17.7313 20.3401 17.4525 20.0612L10 12.6088Z" fill="#222222"/>
</svg>
