<svg width="7" height="18" viewBox="0 0 7 18" fill="none" xmlns="http://www.w3.org/2000/svg">
<path fill-rule="evenodd" clip-rule="evenodd" d="M5.74604 9.41939e-08C5.84507 -4.94001e-05 5.94313 0.0194067 6.03463 0.0572556C6.12612 0.0951046 6.20926 0.150604 6.27928 0.220582C6.3493 0.29056 6.40484 0.373644 6.44271 0.465084C6.48058 0.556525 6.50005 0.654527 6.5 0.753491V5.19649C6.50007 5.29547 6.48062 5.39349 6.44276 5.48495C6.4049 5.57642 6.34937 5.65952 6.27935 5.72952C6.20932 5.79952 6.12618 5.85503 6.03467 5.8929C5.94316 5.93076 5.84508 5.95022 5.74604 5.95017H1.25377C1.15473 5.95019 1.05665 5.93071 0.965154 5.89282C0.873655 5.85494 0.790524 5.7994 0.720518 5.72939C0.650512 5.65937 0.595003 5.57625 0.557165 5.48478C0.519326 5.39331 0.499901 5.29528 0.5 5.1963V0.753491C0.499951 0.654543 0.519413 0.556555 0.557273 0.465127C0.595134 0.3737 0.650651 0.290625 0.720652 0.220649C0.790653 0.150674 0.873766 0.0951688 0.965241 0.0573088C1.05672 0.0194488 1.15476 -2.46552e-05 1.25377 9.41939e-08H5.74604ZM5.74604 12.0498C5.84507 12.0498 5.94313 12.0692 6.03463 12.1071C6.12612 12.1449 6.20926 12.2004 6.27928 12.2704C6.3493 12.3404 6.40484 12.4235 6.44271 12.5149C6.48058 12.6064 6.50005 12.7044 6.5 12.8033V17.2463C6.50007 17.3453 6.48062 17.4433 6.44276 17.5348C6.4049 17.6262 6.34937 17.7094 6.27935 17.7794C6.20932 17.8493 6.12618 17.9049 6.03467 17.9427C5.94316 17.9806 5.84508 18 5.74604 18H1.25377C1.15473 18 1.05665 17.9805 0.965154 17.9427C0.873655 17.9048 0.790524 17.8492 0.720518 17.7792C0.650512 17.7092 0.595003 17.6261 0.557165 17.5346C0.519326 17.4431 0.499901 17.3451 0.5 17.2461V12.8033C0.499951 12.7044 0.519413 12.6064 0.557273 12.515C0.595134 12.4235 0.650651 12.3405 0.720652 12.2705C0.790653 12.2005 0.873766 12.145 0.965241 12.1071C1.05672 12.0693 1.15476 12.0498 1.25377 12.0498H5.74604Z" fill="#222222"/>
</svg>
