<svg width="18" height="25" viewBox="0 0 18 25" fill="none" xmlns="http://www.w3.org/2000/svg">
<path d="M9 6.21516C11.3869 6.21516 13.6761 7.17837 15.364 8.89291C17.0518 10.6074 18 12.9329 18 15.3576C18 17.7823 17.0518 20.1077 15.364 21.8222C13.6761 23.5368 11.3869 24.5 9 24.5C6.61305 24.5 4.32387 23.5368 2.63604 21.8222C0.948212 20.1077 0 17.7823 0 15.3576C0 12.9329 0.948212 10.6074 2.63604 8.89291C4.32387 7.17837 6.61305 6.21516 9 6.21516ZM9 8.50076C7.20979 8.50076 5.4929 9.22318 4.22703 10.5091C2.96116 11.795 2.25 13.539 2.25 15.3576C2.25 17.1761 2.96116 18.9202 4.22703 20.2061C5.4929 21.492 7.20979 22.2144 9 22.2144C10.7902 22.2144 12.5071 21.492 13.773 20.2061C15.0388 18.9202 15.75 17.1761 15.75 15.3576C15.75 13.539 15.0388 11.795 13.773 10.5091C12.5071 9.22318 10.7902 8.50076 9 8.50076ZM9 10.215L10.4872 13.2777L13.815 13.7691L11.4075 16.1518L11.9756 19.5185L9 17.9289L6.02437 19.5174L6.5925 16.1518L4.185 13.7679L7.51275 13.2765L9 10.215ZM15.75 0.501143V3.92955L14.2166 5.23006C12.9446 4.55097 11.5551 4.12836 10.125 3.98555V0.501143H15.75ZM7.875 0.5V3.98555C6.44532 4.12815 5.0563 4.55036 3.7845 5.22892L2.25 3.92955V0.501143L7.875 0.5Z" fill="#D6A645"/>
</svg>
