<svg width="14" height="20" viewBox="0 0 14 20" fill="none" xmlns="http://www.w3.org/2000/svg">
<path fill-rule="evenodd" clip-rule="evenodd" d="M7 20C5.14348 20 3.36301 19.2625 2.05025 17.9497C0.737498 16.637 0 14.8565 0 13C0 11.1435 0.737498 9.36301 2.05025 8.05025C3.36301 6.7375 5.14348 6 7 6C8.85652 6 10.637 6.7375 11.9497 8.05025C13.2625 9.36301 14 11.1435 14 13C14 14.8565 13.2625 16.637 11.9497 17.9497C10.637 19.2625 8.85652 20 7 20ZM7 18C8.32608 18 9.59785 17.4732 10.5355 16.5355C11.4732 15.5979 12 14.3261 12 13C12 11.6739 11.4732 10.4021 10.5355 9.46447C9.59785 8.52678 8.32608 8 7 8C5.67392 8 4.40215 8.52678 3.46447 9.46447C2.52678 10.4021 2 11.6739 2 13C2 14.3261 2.52678 15.5979 3.46447 16.5355C4.40215 17.4732 5.67392 18 7 18ZM7 6C6.73478 6 6.48043 5.89464 6.29289 5.70711C6.10536 5.51957 6 5.26522 6 5C6 4.73478 6.10536 4.48043 6.29289 4.29289C6.48043 4.10536 6.73478 4 7 4C7.26522 4 7.51957 4.10536 7.70711 4.29289C7.89464 4.48043 8 4.73478 8 5C8 5.26522 7.89464 5.51957 7.70711 5.70711C7.51957 5.89464 7.26522 6 7 6ZM4 0H6V4C4.9 4 4 3.1 4 2V0ZM8 0H10V2C10 3.1 9.1 4 8 4V0Z" fill="#A0B0AB"/>
</svg>
