<svg width="19" height="22" viewBox="0 0 19 22" fill="none" xmlns="http://www.w3.org/2000/svg">
<path d="M3.26631 20.5628C2.01469 20.5628 1 19.5215 1 18.2359V8.88379C1 8.17723 1.31344 7.50786 1.85 7.06692L8.08369 1.94779C8.48197 1.61798 8.98288 1.4375 9.5 1.4375C10.0171 1.4375 10.518 1.61798 10.9163 1.94779L17.1489 7.06692C17.6866 7.50786 18 8.17723 18 8.88379V18.2359C18 19.5215 16.9853 20.5628 15.7337 20.5628H3.26631Z" stroke="#A0B0AB" stroke-width="1.5" stroke-linecap="round" stroke-linejoin="round"/>
<path d="M6.84381 20.5625V14.7188C6.84381 14.1552 7.0677 13.6147 7.46621 13.2161C7.86473 12.8176 8.40523 12.5937 8.96881 12.5938H10.0313C10.5949 12.5938 11.1354 12.8176 11.5339 13.2161C11.9324 13.6147 12.1563 14.1552 12.1563 14.7188V20.5625" stroke="#A0B0AB" stroke-width="1.5" stroke-linecap="round" stroke-linejoin="round"/>
</svg>
