<svg width="24" height="20" viewBox="0 0 24 20" fill="none" xmlns="http://www.w3.org/2000/svg">
<path d="M20.1152 18.1914V19.0381H3.88477V18.1914H20.1152ZM1.41016 16.6533C1.59296 17.3767 2.16139 17.9442 2.88477 18.127V18.9912C2.30557 18.8892 1.76625 18.6148 1.34473 18.1934C0.923205 17.7718 0.647935 17.2325 0.545898 16.6533H1.41016ZM23.4541 16.6533C23.3521 17.2325 23.0768 17.7718 22.6553 18.1934C22.2337 18.6148 21.6944 18.8892 21.1152 18.9912V18.127C21.8386 17.9442 22.407 17.3767 22.5898 16.6533H23.4541ZM23.5 2.80664V15.6533H22.6543V2.80664H23.5ZM1.3457 2.80664V15.6533H0.5V2.80664H1.3457ZM21.6543 0.960938V1.80664H2.3457V0.960938H21.6543Z" stroke="#666666"/>
<path d="M0.923096 1.38281L12 12.4597L23.0769 1.38281" stroke="#666666" stroke-width="1.5" stroke-linecap="round" stroke-linejoin="round"/>
</svg>
