<svg width="14" height="13" viewBox="0 0 14 13" fill="none" xmlns="http://www.w3.org/2000/svg">
<path fill-rule="evenodd" clip-rule="evenodd" d="M7.2998 2.03125C6.11462 2.03125 4.97797 2.50206 4.13992 3.34012C3.30187 4.17817 2.83105 5.31481 2.83105 6.5C2.83105 7.08684 2.94664 7.66794 3.17122 8.21012C3.39579 8.75229 3.72496 9.24492 4.13992 9.65988C4.55488 10.0748 5.04751 10.404 5.58969 10.6286C6.13186 10.8532 6.71296 10.9688 7.2998 10.9688C7.88665 10.9688 8.46775 10.8532 9.00992 10.6286C9.55209 10.404 10.0447 10.0748 10.4597 9.65988C10.8747 9.24492 11.2038 8.75229 11.4284 8.21012C11.653 7.66794 11.7686 7.08684 11.7686 6.5C11.7686 5.31481 11.2977 4.17817 10.4597 3.34012C9.62163 2.50206 8.48499 2.03125 7.2998 2.03125ZM3.5654 2.76559C4.55582 1.77517 5.89913 1.21875 7.2998 1.21875C8.70048 1.21875 10.0438 1.77517 11.0342 2.76559C12.0246 3.75602 12.5811 5.09933 12.5811 6.5C12.5811 7.19354 12.4445 7.8803 12.179 8.52105C11.9136 9.1618 11.5246 9.744 11.0342 10.2344C10.5438 10.7248 9.9616 11.1138 9.32085 11.3792C8.6801 11.6446 7.99335 11.7812 7.2998 11.7812C6.60626 11.7812 5.91951 11.6446 5.27876 11.3792C4.63801 11.1138 4.05581 10.7248 3.5654 10.2344C3.07499 9.744 2.68597 9.1618 2.42057 8.52105C2.15516 7.8803 2.01855 7.19354 2.01855 6.5C2.01855 5.09933 2.57497 3.75602 3.5654 2.76559ZM5.79379 4.99399C5.95244 4.83534 6.20967 4.83534 6.36832 4.99399L7.2998 5.92548L8.23129 4.99399C8.38994 4.83534 8.64717 4.83534 8.80582 4.99399C8.96447 5.15264 8.96447 5.40986 8.80582 5.56851L7.87433 6.5L8.80582 7.43149C8.96447 7.59014 8.96447 7.84736 8.80582 8.00601C8.64717 8.16466 8.38994 8.16466 8.23129 8.00601L7.2998 7.07452L6.36832 8.00601C6.20967 8.16466 5.95244 8.16466 5.79379 8.00601C5.63514 7.84736 5.63514 7.59014 5.79379 7.43149L6.72528 6.5L5.79379 5.56851C5.63514 5.40986 5.63514 5.15264 5.79379 4.99399Z" fill="#EF4444"/>
</svg>
