<svg width="28" height="21" viewBox="0 0 28 21" fill="none" xmlns="http://www.w3.org/2000/svg">
<path fill-rule="evenodd" clip-rule="evenodd" d="M0 1.97949C0 1.58167 0.138281 1.20014 0.384422 0.918832C0.630564 0.637527 0.964403 0.479492 1.3125 0.479492H26.6875C27.0356 0.479492 27.3694 0.637527 27.6156 0.918832C27.8617 1.20014 28 1.58167 28 1.97949C28 2.37732 27.8617 2.75885 27.6156 3.04015C27.3694 3.32146 27.0356 3.47949 26.6875 3.47949H1.3125C0.964403 3.47949 0.630564 3.32146 0.384422 3.04015C0.138281 2.75885 0 2.37732 0 1.97949ZM0 10.4795C0 10.0817 0.138281 9.70014 0.384422 9.41883C0.630564 9.13753 0.964403 8.97949 1.3125 8.97949H26.6875C27.0356 8.97949 27.3694 9.13753 27.6156 9.41883C27.8617 9.70014 28 10.0817 28 10.4795C28 10.8773 27.8617 11.2588 27.6156 11.5402C27.3694 11.8215 27.0356 11.9795 26.6875 11.9795H1.3125C0.964403 11.9795 0.630564 11.8215 0.384422 11.5402C0.138281 11.2588 0 10.8773 0 10.4795ZM1.3125 17.4795C0.964403 17.4795 0.630564 17.6375 0.384422 17.9188C0.138281 18.2001 0 18.5817 0 18.9795C0 19.3773 0.138281 19.7588 0.384422 20.0402C0.630564 20.3215 0.964403 20.4795 1.3125 20.4795H26.6875C27.0356 20.4795 27.3694 20.3215 27.6156 20.0402C27.8617 19.7588 28 19.3773 28 18.9795C28 18.5817 27.8617 18.2001 27.6156 17.9188C27.3694 17.6375 27.0356 17.4795 26.6875 17.4795H1.3125Z" fill="#222222"/>
</svg>
