<svg width="16" height="15" viewBox="0 0 16 15" fill="none" xmlns="http://www.w3.org/2000/svg">
<path d="M3 13.5V2.552C2.99993 2.31932 3.07715 2.09322 3.21952 1.90919C3.36189 1.72515 3.56136 1.59363 3.7866 1.53526C4.01183 1.47689 4.25008 1.49499 4.46391 1.58671C4.67774 1.67843 4.85506 1.83858 4.968 2.042L11.032 12.958C11.1449 13.1614 11.3223 13.3216 11.5361 13.4133C11.7499 13.505 11.9882 13.5231 12.2134 13.4647C12.4386 13.4064 12.6381 13.2748 12.7805 13.0908C12.9229 12.9068 13.0001 12.6807 13 12.448V1.5M1 5.5H15M1 9.5H15" stroke="#222222" stroke-width="2" stroke-linecap="round" stroke-linejoin="round"/>
</svg>
