<svg width="17" height="20" viewBox="0 0 17 20" fill="none" xmlns="http://www.w3.org/2000/svg">
<path d="M6.417 14H1.417V19M10.417 6H15.417V1M1 7.003C1.5608 5.61545 2.49957 4.41302 3.70963 3.53237C4.91969 2.65171 6.35252 2.12815 7.84529 2.02118C9.33806 1.9142 10.8309 2.2281 12.1542 2.92721C13.4774 3.62631 14.5781 4.68259 15.331 5.976M15.835 12.997C15.2743 14.3848 14.3355 15.5875 13.1254 16.4683C11.9152 17.3492 10.4822 17.8729 8.98926 17.9798C7.4963 18.0868 6.00327 17.7728 4.67988 17.0735C3.35649 16.3742 2.25583 15.3177 1.503 14.024" stroke="#439182" stroke-width="2" stroke-linecap="round" stroke-linejoin="round"/>
</svg>
