<svg width="13" height="14" viewBox="0 0 13 14" fill="none" xmlns="http://www.w3.org/2000/svg">
<path fill-rule="evenodd" clip-rule="evenodd" d="M6.5 2.15234C5.31481 2.15234 4.17817 2.62316 3.34012 3.46121C2.50206 4.29926 2.03125 5.43591 2.03125 6.62109C2.03125 7.20794 2.14684 7.78904 2.37141 8.33121C2.59599 8.87338 2.92515 9.36602 3.34012 9.78098C3.75508 10.1959 4.24771 10.5251 4.78988 10.7497C5.33206 10.9743 5.91316 11.0898 6.5 11.0898C7.08684 11.0898 7.66794 10.9743 8.21012 10.7497C8.75229 10.5251 9.24492 10.1959 9.65988 9.78098C10.0748 9.36601 10.404 8.87338 10.6286 8.33121C10.8532 7.78904 10.9688 7.20794 10.9688 6.62109C10.9688 5.43591 10.4979 4.29926 9.65988 3.46121C8.82183 2.62316 7.68519 2.15234 6.5 2.15234ZM2.76559 2.88669C3.75602 1.89626 5.09933 1.33984 6.5 1.33984C7.90068 1.33984 9.24398 1.89626 10.2344 2.88669C11.2248 3.87711 11.7812 5.22042 11.7812 6.62109C11.7812 7.31464 11.6446 8.00139 11.3792 8.64214C11.1138 9.28289 10.7248 9.86509 10.2344 10.3555C9.744 10.8459 9.1618 11.2349 8.52105 11.5003C7.8803 11.7657 7.19354 11.9023 6.5 11.9023C5.80646 11.9023 5.1197 11.7657 4.47895 11.5003C3.8382 11.2349 3.256 10.8459 2.76559 10.3555C2.27518 9.86509 1.88617 9.28289 1.62076 8.64214C1.35535 8.00139 1.21875 7.31464 1.21875 6.62109C1.21875 5.22042 1.77517 3.87711 2.76559 2.88669ZM4.99399 5.11508C5.15264 4.95643 5.40986 4.95643 5.56851 5.11508L6.5 6.04657L7.43149 5.11508C7.59014 4.95643 7.84736 4.95643 8.00601 5.11508C8.16466 5.27373 8.16466 5.53096 8.00601 5.68961L7.07452 6.62109L8.00601 7.55258C8.16466 7.71123 8.16466 7.96846 8.00601 8.12711C7.84736 8.28576 7.59014 8.28576 7.43149 8.12711L6.5 7.19562L5.56851 8.12711C5.40986 8.28576 5.15264 8.28576 4.99399 8.12711C4.83534 7.96846 4.83534 7.71123 4.99399 7.55258L5.92548 6.62109L4.99399 5.68961C4.83534 5.53096 4.83534 5.27373 4.99399 5.11508Z" fill="#EF4444"/>
</svg>
