<svg width="16" height="16" viewBox="0 0 16 16" fill="none" xmlns="http://www.w3.org/2000/svg">
<path fill-rule="evenodd" clip-rule="evenodd" d="M13.1223 10.1214C13.5081 9.9174 13.831 9.61205 14.0562 9.23822C14.2814 8.86439 14.4004 8.43624 14.4004 7.99982C14.4004 7.5634 14.2814 7.13525 14.0562 6.76142C13.831 6.38759 13.5081 6.08224 13.1223 5.87822C13.2509 5.46118 13.2634 5.01697 13.1583 4.59338C13.0533 4.16979 12.8347 3.78287 12.5262 3.47423C12.2176 3.1656 11.8308 2.94694 11.4072 2.84178C10.9836 2.73662 10.5394 2.74894 10.1223 2.87742C9.91839 2.49143 9.61302 2.16837 9.23911 1.94304C8.8652 1.71771 8.4369 1.59863 8.00034 1.59863C7.56378 1.59863 7.13549 1.71771 6.76158 1.94304C6.38766 2.16837 6.08229 2.49143 5.87834 2.87742C5.4613 2.74883 5.01709 2.73639 4.5935 2.84144C4.16992 2.94648 3.78299 3.16504 3.47435 3.47359C3.16572 3.78214 2.94706 4.16901 2.8419 4.59257C2.73674 5.01613 2.74906 5.46034 2.87754 5.87742C2.49155 6.08137 2.1685 6.38674 1.94316 6.76065C1.71783 7.13457 1.59875 7.56286 1.59875 7.99942C1.59875 8.43598 1.71783 8.86428 1.94316 9.23819C2.1685 9.6121 2.49155 9.91747 2.87754 10.1214C2.74895 10.5385 2.73651 10.9827 2.84156 11.4063C2.9466 11.8298 3.16516 12.2168 3.47371 12.5254C3.78227 12.834 4.16913 13.0527 4.59269 13.1579C5.01625 13.263 5.46047 13.2507 5.87754 13.1222C6.08149 13.5082 6.38686 13.8313 6.76078 14.0566C7.13469 14.2819 7.56298 14.401 7.99954 14.401C8.4361 14.401 8.8644 14.2819 9.23831 14.0566C9.61222 13.8313 9.91759 13.5082 10.1215 13.1222C10.5386 13.2508 10.9828 13.2633 11.4064 13.1582C11.83 13.0532 12.2169 12.8346 12.5255 12.526C12.8342 12.2175 13.0528 11.8306 13.158 11.4071C13.2631 10.9835 13.2508 10.5385 13.1223 10.1214ZM11.0855 6.55342C11.1319 6.48965 11.1653 6.41737 11.1837 6.3407C11.2022 6.26404 11.2054 6.18449 11.1931 6.1066C11.1808 6.02871 11.1533 5.954 11.1121 5.88675C11.0709 5.81949 11.0169 5.761 10.9531 5.71462C10.8894 5.66824 10.8171 5.63487 10.7404 5.61642C10.6638 5.59797 10.5842 5.59481 10.5063 5.6071C10.4284 5.61939 10.3537 5.64691 10.2865 5.68808C10.2192 5.72924 10.1607 5.78325 10.1143 5.84702L7.32794 9.67902L5.82394 8.17502C5.76857 8.11774 5.70234 8.07206 5.62912 8.04065C5.55591 8.00924 5.47717 7.99273 5.3975 7.99207C5.31783 7.99142 5.23883 8.00664 5.16511 8.03684C5.09138 8.06704 5.02441 8.11163 4.96811 8.16799C4.9118 8.22435 4.86728 8.29136 4.83714 8.36512C4.80701 8.43887 4.79186 8.51788 4.79259 8.59755C4.79332 8.67722 4.80991 8.75594 4.84139 8.82913C4.87287 8.90231 4.91861 8.9685 4.97594 9.02382L6.97594 11.0238C7.03724 11.0852 7.11111 11.1325 7.19246 11.1625C7.27381 11.1926 7.3607 11.2046 7.44715 11.1978C7.53361 11.1911 7.61756 11.1657 7.69325 11.1233C7.76893 11.081 7.83453 11.0227 7.88554 10.9526L11.0855 6.55262V6.55342Z" fill="#16A34A"/>
</svg>
